<?xml version="1.0" encoding="utf-8"?>
<svg version="1.1" xmlns="http://www.w3.org/2000/svg" width="1024" height="1024">
  <path d="M 161.915 205.675 C 394.415 205.675 626.916 205.675 866.462 205.675 C 866.462 412.904 866.462 620.132 866.462 833.641 C 633.962 833.641 401.461 833.641 161.915 833.641 C 161.915 626.413 161.915 419.183 161.915 205.675 Z" style="fill: rgb(33, 39, 49);"/>
  <path d="M0 0 C6.07981173 4.34272267 11.67600861 9.13370494 17.29492188 14.04541016 C21.85629955 18.02700915 26.49605194 21.89038892 31.203125 25.69921875 C34.45278901 28.37247588 37.63144095 31.12088177 40.8125 33.875 C46.02714298 38.38141108 51.32822661 42.74452098 56.83056641 46.89672852 C60.35204747 49.58020483 63.4540913 52.36605656 66.41259766 55.66503906 C71.06595398 60.16311184 71.06595398 60.16311184 76.98291016 62.22946167 C79.21651932 62.10381623 81.36610167 61.81624105 83.57421875 61.45703125 C84.39928925 61.34626251 85.22435974 61.23549377 86.07443237 61.12136841 C87.8299558 60.88510616 89.58407067 60.6381658 91.33670044 60.38131714 C94.78959575 59.88694986 98.25028074 59.48444185 101.71487427 59.0818634 C106.35480897 58.53910828 110.98959061 57.95493609 115.625 57.375 C116.64709564 57.24750366 117.66919128 57.12000732 118.72225952 56.98864746 C136.60057979 54.75123145 154.44364431 52.29310544 172.28170776 49.75671387 C197.03140301 46.23886859 221.8068065 42.92702785 246.58860779 39.6442852 C248.96392667 39.32961831 251.33921836 39.01474678 253.71450806 38.69985962 C256.62101503 38.31457345 259.52766093 37.93036305 262.43441772 37.54696655 C263.76642171 37.37069106 265.0984226 37.19439225 266.43041992 37.01806641 C268.12445198 36.79444931 268.12445198 36.79444931 269.85270691 36.5663147 C275.90581885 35.7397596 281.95211687 34.8639833 288 34 C288 43.57 288 53.14 288 63 C285.39633545 63.30703857 282.7926709 63.61407715 280.11010742 63.93041992 C271.34877301 64.96424818 262.58800962 66.00285707 253.82749462 67.04360485 C248.53426055 67.67230009 243.24086552 68.29955572 237.94702148 68.9230957 C217.18580069 71.36947968 196.43295882 73.83618315 175.73828125 76.80078125 C174.99966543 76.90626974 174.26104961 77.01175823 173.5000515 77.12044334 C165.18405931 78.21923068 165.18405931 78.21923068 157 80 C171.92375167 88.7154413 171.92375167 88.7154413 187.05070496 97.07106018 C190.88802394 99.15774792 194.53022604 101.31637579 198.05371094 103.90185547 C212.8021807 114.37708161 228.56665702 116.44821244 246.02392578 118.86486816 C249.86914599 119.40694823 253.70651227 119.99984677 257.54492188 120.58789062 C265.35634816 121.77637213 273.17562394 122.89977688 281 124 C283.31 124.33 285.62 124.66 288 125 C288 148.43 288 171.86 288 196 C280.12698413 191.50113379 280.12698413 191.50113379 276.828125 189.0390625 C276.09142578 188.4925 275.35472656 187.9459375 274.59570312 187.3828125 C273.82162109 186.80273438 273.04753906 186.22265625 272.25 185.625 C270.55736661 184.36708666 268.86465611 183.10927705 267.171875 181.8515625 C266.31271484 181.2112207 265.45355469 180.57087891 264.56835938 179.91113281 C260.55650985 176.92588965 256.52788379 173.96355109 252.5 171 C250.91657655 169.83345564 249.33324344 168.66678865 247.75 167.5 C246.96625 166.9225 246.1825 166.345 245.375 165.75 C243 164 240.625 162.25 238.25 160.5 C237.46616943 159.9225 236.68233887 159.345 235.87475586 158.75 C234.29200718 157.58364423 232.70948746 156.41697768 231.12719727 155.25 C227.16174126 152.325981 223.1924115 149.40752658 219.21484375 146.5 C210.68744762 140.25812714 202.23937177 133.9351714 193.92749023 127.40820312 C192.51940039 126.30279323 191.10241687 125.20866624 189.67919922 124.12280273 C187.58790262 122.46581131 185.60124079 120.77067878 183.60595703 119.00415039 C171.44382616 108.58197587 158.26690825 104.21748056 143.125 99.5625 C140.76072161 98.80845792 138.39743184 98.05130885 136.03515625 97.29101562 C130.40889204 95.48812514 124.77205215 93.72211148 119.12902832 91.97247314 C114.34889033 90.48685034 109.57686457 88.97580199 104.8046875 87.46484375 C103.27071103 86.98025929 101.7366989 86.49578767 100.20263672 86.01147461 C98.61733154 85.51079468 98.61733154 85.51079468 97 85 C96.96841797 85.64332275 96.93683594 86.28664551 96.90429688 86.94946289 C96.13689957 99.19449853 94.23404604 111.3002979 92.5 123.4375 C92.14528885 125.94015452 91.7908012 128.44284073 91.43652344 130.94555664 C90.29902838 138.96485884 89.15124454 146.9826624 88 155 C87.90188019 155.68348511 87.80376038 156.36697021 87.70266724 157.07116699 C86.319985 166.70082906 84.93136549 176.32962465 83.53677368 185.95756912 C83.25508005 187.9024265 82.97360733 189.84731586 82.69213867 191.79220581 C82.15554792 195.49579239 81.61739763 199.19914677 81.078125 202.90234375 C80.82168213 204.6640818 80.82168213 204.6640818 80.56005859 206.46141052 C79.68324431 212.45036894 78.78225734 218.43462653 77.84570312 224.41455078 C77.56614777 226.20234703 77.56614777 226.20234703 77.28094482 228.02626038 C76.92620216 230.28337245 76.56804531 232.53995156 76.20587158 234.79588318 C76.04737732 235.80240433 75.88888306 236.80892548 75.72558594 237.84594727 C75.51479401 239.16309471 75.51479401 239.16309471 75.29974365 240.5068512 C74.99640143 243.02993144 74.94713885 245.46136627 75 248 C80.03604682 246.32957708 85.07142451 244.65715753 90.10620117 242.98291016 C91.81793409 242.41400545 93.52984638 241.84564017 95.24194336 241.27783203 C97.7073462 240.46008877 100.17209067 239.64038744 102.63671875 238.8203125 C103.39836838 238.56814972 104.16001801 238.31598694 104.94474792 238.05618286 C108.6801566 236.81117719 112.36285419 235.51521545 116 234 C115.14535156 233.68546875 114.29070312 233.3709375 113.41015625 233.046875 C112.30542969 232.61890625 111.20070313 232.1909375 110.0625 231.75 C108.96035156 231.33234375 107.85820313 230.9146875 106.72265625 230.484375 C104 229 104 229 103.28125 227.15039062 C102.81018854 223.54873323 103.99536971 220.20142878 104.9375 216.75 C105.13279297 216.00492188 105.32808594 215.25984375 105.52929688 214.4921875 C106.01104198 212.65920614 106.50439225 210.82928182 107 209 C110.52514543 210.34622318 113.82144148 211.89467428 117.140625 213.6875 C118.12160156 214.21706299 119.10257813 214.74662598 120.11328125 215.29223633 C121.14839844 215.85579834 122.18351562 216.41936035 123.25 217 C124.84134766 217.86371216 124.84134766 217.86371216 126.46484375 218.74487305 C135.42812362 223.63534775 144.25246624 228.73484041 153 234 C149.01944813 238.29336537 144.69385035 241.47539243 139.8125 244.6875 C139.02439941 245.20860352 138.23629883 245.72970703 137.42431641 246.26660156 C125.02029393 254.35864402 111.93544283 261.2369951 98.62988281 267.71386719 C96.05502012 268.97309265 93.48714149 270.24595871 90.9198761 271.52058411 C73.56620853 280.1242337 56.09623782 288.05443394 38 295 C37.02767426 295.3741806 37.02767426 295.3741806 36.03570557 295.75592041 C13.24913422 304.51609269 -9.75838008 312.53492827 -33 320 C-34.18106323 320.3802533 -34.18106323 320.3802533 -35.38598633 320.76818848 C-69.95430407 331.88230662 -104.67767952 340.6438608 -140.3203125 347.56640625 C-141.44568672 347.78596733 -141.44568672 347.78596733 -142.59379578 348.00996399 C-147.75801923 349 -147.75801923 349 -150 349 C-149.67 341.08 -149.34 333.16 -149 325 C-136.25 321 -136.25 321 -134 321 C-133.82456413 319.2498484 -133.82456413 319.2498484 -133.64558411 317.46434021 C-132.5185408 306.39192906 -131.17372132 295.36992346 -129.63671875 284.34765625 C-129.4056991 282.67448116 -129.17492292 281.00127243 -128.94436646 279.32803345 C-128.32479044 274.83814427 -127.70118295 270.34882434 -127.07648087 265.85964584 C-126.68488829 263.04371933 -126.29434065 260.22764985 -125.90414429 257.41152954 C-124.09223959 244.33524391 -122.27101383 231.26027161 -120.44493103 218.18595886 C-119.99470631 214.96209416 -119.54475717 211.73819107 -119.09484863 208.51428223 C-117.29656333 195.63109947 -115.49247392 182.74874476 -113.68106079 169.86740112 C-113.10173447 165.74757288 -112.52383754 161.62754799 -111.94711304 157.50735474 C-111.26825181 152.65897929 -110.58585061 147.81111526 -109.90063095 142.96363449 C-109.64852555 141.17626088 -109.39761378 139.38871846 -109.14795303 137.60100174 C-108.80739461 135.16410813 -108.46250939 132.72786634 -108.11645508 130.29174805 C-108.01731654 129.5751555 -107.91817801 128.85856295 -107.81603527 128.12025547 C-107.11418454 123.22836907 -107.11418454 123.22836907 -106 121 C-113.20056551 126.79056884 -120.23909505 132.69705296 -127 139 C-127.63550781 139.57492187 -128.27101563 140.14984375 -128.92578125 140.7421875 C-131.92489922 144.00676412 -134.28745043 147.6339839 -136.75 151.3125 C-137.91448648 153.03314669 -139.07989154 154.75317197 -140.24609375 156.47265625 C-140.8582373 157.3764502 -141.47038086 158.28024414 -142.10107422 159.21142578 C-145.30391839 163.91480533 -148.55817753 168.5821558 -151.8125 173.25 C-152.48313477 174.21268799 -153.15376953 175.17537598 -153.84472656 176.16723633 C-155.21347313 178.13183434 -156.58245176 180.0962707 -157.95166016 182.06054688 C-161.30418353 186.87155777 -164.65183218 191.68595745 -168 196.5 C-169.32812036 198.4088574 -170.65624537 200.31771156 -171.984375 202.2265625 C-174.70473055 206.1369074 -177.42326918 210.04850751 -180.140625 213.9609375 C-187.57634693 224.66408385 -195.04077877 235.34518799 -202.57324219 245.98046875 C-204.02515837 248.03561089 -205.47042454 250.09528586 -206.9140625 252.15625 C-212.38305209 259.95541044 -217.92704609 267.69506942 -223.5625 275.375 C-224.45654541 276.59775635 -224.45654541 276.59775635 -225.36865234 277.84521484 C-226.20904053 278.98531006 -226.20904053 278.98531006 -227.06640625 280.1484375 C-227.56084229 280.82052246 -228.05527832 281.49260742 -228.56469727 282.18505859 C-229.94316371 283.92813047 -231.41741058 285.44403678 -233 287 C-236.10163338 280.98134905 -238.80103722 274.87540767 -241.37109375 268.61328125 C-241.77530045 267.63441452 -242.17950714 266.65554779 -242.59596252 265.64701843 C-243.44698161 263.5843539 -244.29656176 261.52109517 -245.14477539 259.45727539 C-246.42705029 256.33792072 -247.71411301 253.22057618 -249.00195312 250.10351562 C-253.12227975 240.11387346 -257.21193571 230.1214441 -261 220 C-254.22553734 214.22365567 -247.43279577 208.49031134 -240.45703125 202.95703125 C-235.93214517 199.35294869 -231.47231298 195.66894134 -227 192 C-225.29177642 190.60403235 -223.58344143 189.20820102 -221.875 187.8125 C-214.23417554 181.56091635 -206.61879673 175.27839157 -199 169 C-196.04184427 166.56228435 -193.08351421 164.12478057 -190.125 161.6875 C-189.41166504 161.0996875 -188.69833008 160.511875 -187.96337891 159.90625 C-184.06766383 156.69748026 -180.16328545 153.49984264 -176.25 150.3125 C-171.73315314 146.62374173 -167.2814153 142.86283496 -162.8371582 139.08740234 C-158.58098063 135.47713334 -154.27489798 131.93218582 -149.9453125 128.41015625 C-146.83529936 125.86522508 -143.74500358 123.29796238 -140.66015625 120.72265625 C-140.11234497 120.26572388 -139.56453369 119.8087915 -139.00012207 119.3380127 C-137.66653418 118.22559814 -136.3332364 117.1128358 -135 116 C-142.81335108 117.11911312 -150.62566233 118.24537333 -158.4375 119.375 C-159.63862427 119.54863068 -160.83974854 119.72226135 -162.07727051 119.90115356 C-177.30835381 122.10707872 -192.52910845 124.37043304 -207.73828125 126.72265625 C-208.47158094 126.83599304 -209.20488064 126.94932983 -209.96040154 127.06610107 C-217.18381678 128.18297015 -224.40648522 129.30447532 -231.62759686 130.43614674 C-233.67242449 130.75615844 -235.71747574 131.07469722 -237.76261902 131.39268494 C-240.25836419 131.78101715 -242.75369198 132.17204632 -245.24848938 132.56642151 C-246.93581429 132.82829506 -246.93581429 132.82829506 -248.65722656 133.09545898 C-250.1038266 133.322407 -250.1038266 133.322407 -251.57965088 133.55393982 C-256.36997723 134.17866372 -261.18894861 134.56263169 -266 135 C-266 127.08 -266 119.16 -266 111 C-263.51210938 110.63390625 -261.02421875 110.2678125 -258.4609375 109.890625 C-228.88464407 105.52473245 -199.33425106 100.99537663 -169.78662109 96.44042969 C-168.9937501 96.31822744 -168.2008791 96.1960252 -167.3839817 96.07011986 C-163.42105256 95.45917954 -159.45827027 94.84731209 -155.49575806 94.2336731 C-147.95705419 93.06704661 -140.4172654 91.9090614 -132.87334442 90.7765913 C-129.27292153 90.23578101 -125.67307693 89.69117463 -122.07325745 89.14636421 C-120.35434048 88.88735069 -118.63513642 88.63023442 -116.91563416 88.37513542 C-114.53089869 88.02123343 -112.14722799 87.66081956 -109.76367188 87.29907227 C-109.06389221 87.19701792 -108.36411255 87.09496357 -107.64312744 86.98981667 C-103.59081494 86.36716891 -99.78893381 85.58791369 -96 84 C-95.01 82.515 -95.01 82.515 -94 81 C-93.34 81 -92.68 81 -92 81 C-92 80.34 -92 79.68 -92 79 C-90.7421875 77.6953125 -90.7421875 77.6953125 -88.875 76.125 C-88.14667969 75.50625 -87.41835938 74.8875 -86.66796875 74.25 C-85.78753906 73.5075 -84.90710938 72.765 -84 72 C-82.9116665 71.06377013 -81.82449917 70.12618354 -80.73828125 69.1875 C-75.31975352 64.5104391 -69.88058444 59.87413986 -64.3125 55.375 C-59.62692813 51.57440437 -55.18788367 47.5536202 -50.75 43.46875 C-47.18815771 40.27118704 -43.47434167 37.28611657 -39.75 34.28125 C-36.91900422 31.93281032 -34.20616402 29.49090098 -31.5 27 C-27.06156639 22.91462361 -22.47200644 19.09005397 -17.77734375 15.3046875 C-13.86277863 12.0563142 -10.13932083 8.62411211 -6.41015625 5.1640625 C-4.34279164 3.30779022 -2.25355413 1.6208858 0 0 Z " transform="translate(511,424)" style="fill: rgb(53, 222, 188);"/>
  <path d="M0 0 C3.91732201 1.65188277 6.89071803 4.30438789 10.0625 7.0625 C11.23377534 8.06710582 12.40565891 9.0710029 13.578125 10.07421875 C14.15884766 10.57228027 14.73957031 11.0703418 15.33789062 11.58349609 C19.49788786 15.12878163 23.75820864 18.55354452 28 22 C29.25015432 23.02064434 30.50014375 24.04149067 31.75 25.0625 C37.71588103 29.92989905 43.6898055 34.78260899 49.75610352 39.5246582 C51.50246188 40.89054222 53.24163543 42.26518316 54.98046875 43.640625 C56.76983665 45.03878569 58.5785301 46.41363505 60.42578125 47.734375 C62.375 49.1875 62.375 49.1875 65 52 C65.64245879 59.45529119 64.17200356 66.86516695 63.09375 74.23046875 C62.8908307 75.64457423 62.68836782 77.05874527 62.48632812 78.47297668 C61.94357748 82.26109171 61.39360621 86.04812506 60.8420105 89.83496094 C60.38448639 92.98206709 59.93117461 96.12977433 59.47779083 99.27747917 C55.82282319 124.64432924 52.03952496 149.99146954 48.16125488 175.32514954 C47.19402989 181.66203073 46.27753583 188.00378681 45.41210938 194.35546875 C45.27611328 195.22816406 45.14011719 196.10085938 45 197 C44.92612061 197.73686035 44.85224121 198.4737207 44.77612305 199.23291016 C44 201 44 201 41.77075195 202.14990234 C40.77003662 202.45879395 39.76932129 202.76768555 38.73828125 203.0859375 C37.58126709 203.45170898 36.42425293 203.81748047 35.23217773 204.19433594 C33.92572908 204.58825758 32.61916537 204.98179781 31.3125 205.375 C29.9319604 205.80368637 28.55184498 206.23374078 27.17211914 206.66503906 C23.29737654 207.87057608 19.41589396 209.05295484 15.53259277 210.23059082 C12.94136268 211.01781419 10.35180743 211.81033218 7.76269531 212.60449219 C-2.76539366 215.83371447 -13.30080786 219.03820752 -23.84115601 222.22717285 C-34.24891081 225.37633082 -44.65167352 228.54182364 -55.05392456 231.70910645 C-57.98186236 232.60045167 -60.90997196 233.49123021 -63.83813477 234.38183594 C-64.75118881 234.65966919 -65.66424286 234.93750244 -66.60496521 235.22375488 C-68.36227815 235.75832522 -70.11972985 236.29243968 -71.87733459 236.8260498 C-75.61725945 237.9628282 -79.35424208 239.10660312 -83.08154297 240.28417969 C-84.83362061 240.8357373 -84.83362061 240.8357373 -86.62109375 241.3984375 C-87.60392334 241.71216309 -88.58675293 242.02588867 -89.59936523 242.34912109 C-92 243 -92 243 -95 243 C-91.11236204 213.98800317 -87.05378541 185.00709695 -82.6237793 156.07250977 C-80.64256527 143.10423462 -78.72356445 130.13297236 -76.93676758 117.13645935 C-76.11571351 111.16557086 -75.2752211 105.19745722 -74.43099213 99.22980595 C-73.84302297 95.06280393 -73.26628134 90.89485917 -72.71472168 86.72286987 C-72.19586844 82.79831834 -71.64970448 78.87851152 -71.08341599 74.96053314 C-70.87958077 73.5146399 -70.68592026 72.06726924 -70.50334549 70.6185379 C-69.53809913 63.00172712 -68.80668295 57.27992459 -62.68399048 52.22666931 C-62.12827362 51.82186844 -61.57255676 51.41706757 -61 51 C-60.154375 50.27554688 -59.30875 49.55109375 -58.4375 48.8046875 C-57.633125 48.16789063 -56.82875 47.53109375 -56 46.875 C-51.40997245 43.18028002 -46.93852424 39.37516878 -42.5 35.5 C-37.32105943 30.98482633 -32.08162598 26.56760799 -26.7421875 22.2421875 C-23.62999889 19.69746348 -20.56272348 17.10383132 -17.5 14.5 C-11.72579257 9.59265612 -5.88396544 4.77556313 0 0 Z " transform="translate(511,482)" style="fill: rgb(33, 39, 49);"/>
  <path d="M0 0 C4.21044405 3.31460489 7.66346268 6.67742079 11 10.875 C15.54895196 16.58854619 20.47408214 21.87723853 25.5078125 27.16552734 C29.21369319 31.0647498 32.80995652 35.03297135 36.33496094 39.09643555 C39.23840165 42.41580904 42.24953918 45.63533095 45.25585938 48.86132812 C47.38640823 51.16567703 49.2539448 53.3809172 51 56 C73.86280547 54.57560575 96.68802178 52.77969052 119.51726127 50.900002 C124.43387461 50.49573628 129.35071536 50.0942544 134.26753235 49.69247437 C143.58760807 48.93050511 152.90750851 48.16641564 162.22733384 47.40139043 C262.68590298 39.15547234 262.68590298 39.15547234 292.70765114 36.78062057 C294.8383449 36.61197968 296.9689815 36.44261474 299.09955406 36.27244949 C301.91229376 36.0481704 304.72525579 35.82697048 307.53833008 35.60693359 C308.32623995 35.54368267 309.11414982 35.48043175 309.92593575 35.41526413 C313.9818498 35.10242185 317.91959657 35 322 35 C322 58.43 322 81.86 322 106 C312.76 106 303.52 106 294 106 C294 93.13 294 80.26 294 67 C285.585 67.99 285.585 67.99 277 69 C273.17197394 69.32965729 269.35545655 69.63791634 265.5234375 69.89453125 C264.49864792 69.96681442 263.47385834 70.0390976 262.41801453 70.11357117 C260.21751685 70.26868351 258.01690616 70.42219968 255.81619263 70.57421875 C249.7582445 70.99369409 243.70139672 71.42849233 237.64453125 71.86328125 C235.73863472 71.99991684 235.73863472 71.99991684 233.79423523 72.13931274 C210.01129844 73.85470191 186.24472158 75.79482071 162.47790527 77.71868896 C159.3176965 77.97430306 156.15740176 78.22881818 152.99707031 78.48291016 C139.69055205 79.55480973 126.38855044 80.67634414 113.0880661 81.82055664 C110.82683131 82.0148817 108.56554868 82.20864379 106.30426025 82.40234375 C60.02719097 86.36845779 13.79646548 90.50281893 -32.35141182 95.787323 C-41.74503248 96.86244924 -51.14197627 97.90623503 -60.53975105 98.94435692 C-106.11836644 103.98170484 -151.66084064 109.29026084 -197.18457031 114.80151367 C-215.9105178 117.06852631 -234.63704835 119.32870926 -253.37225723 121.51814842 C-255.28057336 121.74122986 -257.18882602 121.96485498 -259.09701157 122.18905067 C-261.71697397 122.49657415 -264.33719571 122.80177462 -266.95751953 123.10620117 C-267.73282642 123.19749235 -268.50813332 123.28878353 -269.30693436 123.38284111 C-272.22478641 123.71951714 -275.05982974 124 -278 124 C-278 139.84 -278 155.68 -278 172 C-287.24 172 -296.48 172 -306 172 C-306 147.58 -306 123.16 -306 98 C-297.77502543 96.7346193 -289.60582337 95.53525587 -281.34765625 94.58984375 C-279.70199425 94.39848595 -279.70199425 94.39848595 -278.02308655 94.20326233 C-274.36981719 93.77906886 -270.71615739 93.35833704 -267.0625 92.9375 C-264.38587958 92.62716959 -261.70928468 92.31662517 -259.03271484 92.00585938 C-245.44587621 90.42962289 -231.85737426 88.86794906 -218.26826096 87.31146049 C-200.40781965 85.26562072 -182.54968795 83.20024845 -164.69265556 81.12487125 C-158.26561354 80.37824759 -151.83825165 79.63443122 -145.41071153 78.8921082 C-130.39510252 77.15785566 -115.38068904 75.41380857 -100.36820602 73.65268326 C-93.12004202 72.80266595 -85.87140886 71.9571869 -78.62139893 71.12304688 C-71.74192299 70.33151436 -64.86412154 69.52663067 -57.98723793 68.71288681 C-55.41781428 68.4110562 -52.84785377 68.11375905 -50.27736473 67.82114029 C-46.73976881 67.41768826 -43.20442798 66.99824811 -39.66918945 66.57470703 C-38.62414812 66.45935104 -37.57910679 66.34399506 -36.50239754 66.22514343 C-35.55098822 66.10783371 -34.5995789 65.99052399 -33.61933899 65.86965942 C-32.79424489 65.77349901 -31.96915079 65.6773386 -31.11905384 65.57826424 C-28.60791566 64.89300491 -27.6269873 63.99980391 -26 62 C-24.95584325 60.06749267 -24.95584325 60.06749267 -24.11816406 57.89013672 C-23.78061096 57.06432098 -23.44305786 56.23850525 -23.09527588 55.38766479 C-22.56084869 54.04721603 -22.56084869 54.04721603 -22.015625 52.6796875 C-21.44760162 51.28159348 -21.44760162 51.28159348 -20.86810303 49.85525513 C-19.65490037 46.86468035 -18.45224056 43.86999623 -17.25 40.875 C-16.45643837 38.9124735 -15.66217455 36.95023077 -14.8671875 34.98828125 C-13.31344979 31.15164298 -11.76211186 27.31405008 -10.21289062 23.47558594 C-8.14568711 18.3576447 -6.07328366 13.24193665 -3.984375 8.1328125 C-3.69451721 7.41850067 -3.40465942 6.70418884 -3.10601807 5.9682312 C-1.11560454 1.11560454 -1.11560454 1.11560454 0 0 Z " transform="translate(504,283)" style="fill: rgb(53, 222, 188);"/>
  <path d="M0 0 C0.66 0.33 1.32 0.66 2 1 C0.44395612 2.61042988 -1.12012756 4.21309368 -2.6875 5.8125 C-3.55761719 6.70582031 -4.42773438 7.59914063 -5.32421875 8.51953125 C-8.73485801 11.68121874 -11.25156335 14 -16 14 C-14.2725597 12.4147483 -12.54312043 10.83177374 -10.8125 9.25 C-9.36810547 7.92742188 -9.36810547 7.92742188 -7.89453125 6.578125 C-5.32582261 4.29020637 -2.70839628 2.11918393 0 0 Z " fill="#0B1149" transform="translate(358,555)"/>
  <path d="M0 0 C0.33 0.99 0.66 1.98 1 3 C-0.07543783 3.98783194 -1.16073217 4.96493943 -2.25 5.9375 C-3.15492188 6.75541016 -3.15492188 6.75541016 -4.078125 7.58984375 C-6.08467305 9.06212799 -7.57002449 9.57529189 -10 10 C-7.02911382 6.00073014 -3.87051275 3.07881696 0 0 Z " fill="#0C164F" transform="translate(285,615)"/>
</svg>